<?xml version="1.0" encoding="UTF-8" standalone="no"?>
<svg
   xmlns:dc="http://purl.org/dc/elements/1.1/"
   xmlns:cc="http://creativecommons.org/ns#"
   xmlns:rdf="http://www.w3.org/1999/02/22-rdf-syntax-ns#"
   xmlns:svg="http://www.w3.org/2000/svg"
   xmlns="http://www.w3.org/2000/svg"
   xmlns:sodipodi="http://sodipodi.sourceforge.net/DTD/sodipodi-0.dtd"
   xmlns:inkscape="http://www.inkscape.org/namespaces/inkscape"
   role="img"
   viewBox="0 0 32.000004 31.999998"
   version="1.1"
   id="svg1496"
   sodipodi:docname="github.svg"
   inkscape:version="1.0.1 (c497b03c, 2020-09-10)"
   width="32.000004"
   height="31.999998">
  <metadata
     id="metadata1502">
    <rdf:RDF>
      <cc:Work
         rdf:about="">
        <dc:format>image/svg+xml</dc:format>
        <dc:type
           rdf:resource="http://purl.org/dc/dcmitype/StillImage" />
        <dc:title>GitHub</dc:title>
      </cc:Work>
    </rdf:RDF>
  </metadata>
  <defs
     id="defs1500" />
  <sodipodi:namedview
     pagecolor="#ffffff"
     bordercolor="#666666"
     borderopacity="1"
     objecttolerance="10"
     gridtolerance="10"
     guidetolerance="10"
     inkscape:pageopacity="0"
     inkscape:pageshadow="2"
     inkscape:window-width="1440"
     inkscape:window-height="847"
     id="namedview1498"
     showgrid="false"
     inkscape:zoom="11.320705"
     inkscape:cx="-7.1474774"
     inkscape:cy="11.899444"
     inkscape:window-x="0"
     inkscape:window-y="25"
     inkscape:window-maximized="1"
     inkscape:current-layer="layer10"
     inkscape:document-rotation="0"
     fit-margin-top="0"
     fit-margin-left="0"
     fit-margin-right="0"
     fit-margin-bottom="0" />
  <title
     id="title1492">GitHub</title>
  <g
     inkscape:groupmode="layer"
     id="layer9"
     inkscape:label="Layer 1"
     transform="translate(4.2108026,3.5924664)">
    <rect
       style="fill:#000000;stroke:#000000;stroke-width:1.23902"
       id="rect1507"
       width="30.760983"
       height="30.760979"
       x="-3.5912926"
       y="-2.9729564"
       ry="6.8407793" />
  </g>
  <g
     inkscape:groupmode="layer"
     id="layer10"
     inkscape:label="Layer 2"
     transform="translate(4.2108026,3.5924664)">
    <path
       d="m 11.789199,0.70466562 c -6.6300004,0 -12.00000036,5.37299998 -12.00000036,12.00000038 0,5.303 3.43799996,9.8 8.20499996,11.385 0.6,0.113 0.82,-0.258 0.82,-0.577 0,-0.285 -0.01,-1.04 -0.015,-2.04 -3.338,0.724 -4.042,-1.61 -4.042,-1.61 -0.546,-1.385 -1.335,-1.755 -1.335,-1.755 -1.087,-0.744 0.084,-0.729 0.084,-0.729 1.205,0.084 1.838,1.236 1.838,1.236 1.07,1.835 2.809,1.305 3.495,0.998 0.108,-0.776 0.417,-1.305 0.76,-1.605 -2.665,-0.3 -5.466,-1.332 -5.466,-5.93 0,-1.31 0.465,-2.3800004 1.235,-3.2200004 -0.135,-0.303 -0.54,-1.523 0.105,-3.176 0,0 1.005,-0.322 3.3,1.23 0.96,-0.267 1.9800004,-0.399 3.0000004,-0.405 1.02,0.006 2.04,0.138 3,0.405 2.28,-1.552 3.285,-1.23 3.285,-1.23 0.645,1.653 0.24,2.873 0.12,3.176 0.765,0.84 1.23,1.9100004 1.23,3.2200004 0,4.61 -2.805,5.625 -5.475,5.92 0.42,0.36 0.81,1.096 0.81,2.22 0,1.606 -0.015,2.896 -0.015,3.286 0,0.315 0.21,0.69 0.825,0.57 4.801,-1.574 8.236,-6.074 8.236,-11.369 0,-6.6270004 -5.373,-12.00000038 -12,-12.00000038"
       id="path1494"
       style="fill:#ffffff" />
  </g>
</svg>
