<?xml version="1.0" encoding="UTF-8" standalone="no"?>
<svg
   role="img"
   viewBox="0 0 26 26"
   version="1.1"
   id="svg136"
   sodipodi:docname="kicad.svg"
   width="26"
   height="26"
   inkscape:version="1.2.2 (b0a84865, 2022-12-01)"
   xmlns:inkscape="http://www.inkscape.org/namespaces/inkscape"
   xmlns:sodipodi="http://sodipodi.sourceforge.net/DTD/sodipodi-0.dtd"
   xmlns="http://www.w3.org/2000/svg"
   xmlns:svg="http://www.w3.org/2000/svg"
   xmlns:rdf="http://www.w3.org/1999/02/22-rdf-syntax-ns#"
   xmlns:cc="http://creativecommons.org/ns#"
   xmlns:dc="http://purl.org/dc/elements/1.1/">
  <defs
     id="defs140" />
  <sodipodi:namedview
     id="namedview138"
     pagecolor="#ffffff"
     bordercolor="#666666"
     borderopacity="1.0"
     inkscape:showpageshadow="2"
     inkscape:pageopacity="0.0"
     inkscape:pagecheckerboard="0"
     inkscape:deskcolor="#d1d1d1"
     showgrid="false"
     inkscape:zoom="29.296017"
     inkscape:cx="15.428719"
     inkscape:cy="14.541226"
     inkscape:window-width="2282"
     inkscape:window-height="1192"
     inkscape:window-x="0"
     inkscape:window-y="25"
     inkscape:window-maximized="0"
     inkscape:current-layer="svg136" />
  <title
     id="title132">KiCad</title>
  <rect
     style="display:inline;fill:#080406;fill-opacity:1;stroke:none;stroke-width:1.42488;stroke-dashoffset:153.287"
     id="rect2060"
     width="26"
     height="26"
     x="0"
     y="0"
     ry="2.7892628" />
  <path
     d="m 8.4668,8.3043556 c -0.472,0.0238 -0.8477,0.4142 -0.8477,0.8906004 0,0.4918 0.3994,0.8906 0.8926,0.8906 0.4933,0 0.8926,-0.3988 0.8926,-0.8906 0,-0.4918004 -0.3993,-0.8906004 -0.8926,-0.8906004 -0.0154,0 -0.0297,-8e-4 -0.0449,0 z M 1.25,9.011356 c -0.1394,0 -0.25,0.1214 -0.25,0.254 v 8.1777 c 0,0.1325 0.1106,0.2539 0.25,0.2539 h 8.5215 c 0.1394,0 0.248,-0.1214 0.248,-0.254 v -8.1776 c 0,-0.1327 -0.1083,-0.2539 -0.248,-0.2539 H 9.5117 c 0.011,0.0595 0.0176,0.121 0.0176,0.1836 0,0.0605 -0.0054,0.1201 -0.0156,0.1777 h 0.1445 v 7.963 H 1.3613 v -7.963 h 6.1485 a 1.0179,1.0179 0 0 1 -0.0157,-0.1777 c 0,-0.0628 0.0066,-0.1238 0.0176,-0.1836 z m 0.2617,0.5117 v 7.664 h 7.9961 v -7.664 H 9.4746 a 1.025,1.025 0 0 1 -0.4883,0.5703 0.8482,0.8482 0 0 1 -0.4746,0.1426 0.8483,0.8483 0 0 1 -0.4746,-0.1426 1.025,1.025 0 0 1 -0.4883,-0.5703 z m 21.5606,0.252 c 0.0966,0.1084 0.1562,0.2266 0.1797,0.3555 0.0116,0.0615 0.0175,0.1992 0.0175,0.4101 v 1.664 c -0.2753,-0.2606 -0.6554,-0.3906 -1.1386,-0.3906 -0.3662,0 -0.6896,0.1007 -0.9707,0.3028 -0.5946,0.4276 -0.8926,1.2249 -0.8926,2.3906 0,0.3515 0.0469,0.67 0.1406,0.957 0.1347,0.41 0.3487,0.7335 0.6387,0.9707 0.3075,0.252 0.669,0.379 1.0879,0.379 0.495,0 0.9034,-0.1574 1.2226,-0.4708 v 0.373 H 25 c -0.1347,-0.1492 -0.2012,-0.4072 -0.2012,-0.7733 v -6.168 z m -9.6328,0.2988 c -0.785,0 -1.463,0.2873 -2.0372,0.8613 -0.6209,0.621 -0.9316,1.4593 -0.9316,2.5137 0,0.9402 0.253,1.7238 0.7598,2.3535 0.5447,0.6795 1.2746,1.0196 2.1914,1.0196 0.577,0 1.0987,-0.131 1.5644,-0.3946 0.2636,-0.1494 0.414,-0.22 0.4492,-0.211 l -0.7304,-1.1952 c -0.3456,0.3807 -0.7404,0.5703 -1.1856,0.5703 -0.249,0 -0.4834,-0.0782 -0.703,-0.2363 -0.4717,-0.3398 -0.7071,-0.9749 -0.7071,-1.9063 0,-0.328 0.0322,-0.628 0.0996,-0.9004 0.205,-0.8318 0.6447,-1.248 1.3183,-1.248 0.4306,0 0.7755,0.1641 1.0332,0.4922 l 0.7872,-1.1426 c -0.085,-0.009 -0.1964,-0.0508 -0.334,-0.127 -0.536,-0.2987 -1.0617,-0.4492 -1.5742,-0.4492 z m -11.879,0.1016 H 3.625 c -0.164,0.164 -0.2461,0.4474 -0.246,0.8515 v 1.6133 l 1.2616,-1.5957 c 0.2578,-0.325 0.3867,-0.5674 0.3867,-0.7285 0,-0.0585 -0.0088,-0.1054 -0.0234,-0.1406 h 2.2012 c -0.167,0.0937 -0.375,0.2901 -0.627,0.5918 -0.0673,0.079 -0.1856,0.2247 -0.3554,0.4355 l -1.6524,2.0567 1.9727,2.7148 c 0.12,0.164 0.2725,0.3497 0.457,0.5547 0.0498,0.0527 0.1211,0.1144 0.2148,0.1875 H 4.957 a 0.7156,0.7156 0 0 0 0.0254,-0.1797 c 0,-0.1611 -0.1114,-0.3946 -0.334,-0.6992 l -1.2694,-1.7305 v 1.754 c 0,0.407 0.082,0.6914 0.2461,0.8554 H 1.5605 c 0.1143,-0.1142 0.1866,-0.2442 0.2188,-0.3906 0.0175,-0.082 0.0273,-0.2355 0.0273,-0.461 v -4.8379 c 0,-0.2255 -0.0098,-0.3789 -0.0273,-0.4609 -0.0322,-0.1464 -0.1045,-0.2764 -0.2188,-0.3906 z m 16.2032,1.6386 c -0.2373,0 -0.4561,0.0195 -0.6582,0.0605 l -0.5977,0.1504 c -0.2812,0.0703 -0.4717,0.1055 -0.5683,0.1055 l 0.4355,1.0488 c 0.41,-0.2167 0.8019,-0.3242 1.1738,-0.3242 0.4364,0 0.6543,0.2511 0.6543,0.752 -0.2167,-0.0116 -0.3691,-0.0176 -0.457,-0.0176 -0.618,0 -1.0987,0.083 -1.4414,0.25 -0.5946,0.29 -0.8906,0.7384 -0.8906,1.3476 0,0.2666 0.0469,0.506 0.1406,0.7168 0.1318,0.2959 0.3409,0.5244 0.6308,0.6856 0.2754,0.1522 0.5831,0.2276 0.92,0.2246 0.4745,-0.006 0.8623,-0.1632 1.164,-0.4707 v 0.373 h 1.6387 c -0.0996,-0.1083 -0.1621,-0.2276 -0.1855,-0.3594 -0.0117,-0.0644 -0.0176,-0.2031 -0.0176,-0.414 v -2.1485 c 0,-0.4305 -0.0587,-0.791 -0.1758,-1.084 -0.2402,-0.5974 -0.8284,-0.8964 -1.7656,-0.8964 z m -10.211,0.0957 h 1.7266 v 4.0332 c 0,0.211 0.0059,0.3497 0.0176,0.4141 0.0234,0.1318 0.086,0.251 0.1855,0.3594 H 7.5488 c 0.0996,-0.1083 0.1602,-0.2276 0.1836,-0.3594 0.0117,-0.0644 0.0176,-0.2032 0.0176,-0.414 v -3.2676 c 0,-0.2109 -0.0059,-0.3467 -0.0176,-0.4082 -0.0234,-0.1289 -0.083,-0.249 -0.1797,-0.3574 z m 15.0703,1.0197 c 0.2373,0 0.4532,0.082 0.6465,0.246 v 2.1934 c -0.2284,0.1845 -0.4668,0.2754 -0.7129,0.2754 -0.4715,0 -0.707,-0.4025 -0.707,-1.211 0,-1.0016 0.258,-1.5038 0.7734,-1.5038 z m -4.793,1.6484 c 0.123,0 0.2403,0.009 0.3516,0.0293 v 0.7617 c -0.1464,0.252 -0.38,0.377 -0.6992,0.377 -0.1728,0 -0.3154,-0.046 -0.4297,-0.1367 -0.126,-0.0996 -0.1894,-0.2315 -0.1894,-0.3985 0,-0.2226 0.1114,-0.3906 0.334,-0.502 0.1757,-0.0878 0.3867,-0.1308 0.6328,-0.1308 z"
     id="path134"
     style="fill:#ffffff;fill-opacity:1;stroke:none;stroke-opacity:1" />
  <metadata
     id="metadata1280">
    <rdf:RDF>
      <cc:Work
         rdf:about="">
        <dc:title>KiCad</dc:title>
      </cc:Work>
    </rdf:RDF>
  </metadata>
</svg>
