<?xml version="1.0" encoding="UTF-8" standalone="no"?>
<svg
   xmlns:dc="http://purl.org/dc/elements/1.1/"
   xmlns:cc="http://creativecommons.org/ns#"
   xmlns:rdf="http://www.w3.org/1999/02/22-rdf-syntax-ns#"
   xmlns:svg="http://www.w3.org/2000/svg"
   xmlns="http://www.w3.org/2000/svg"
   xmlns:sodipodi="http://sodipodi.sourceforge.net/DTD/sodipodi-0.dtd"
   xmlns:inkscape="http://www.inkscape.org/namespaces/inkscape"
   role="img"
   viewBox="0 0 33.001572 33.001572"
   version="1.1"
   id="svg1004"
   sodipodi:docname="kubernetes.svg"
   inkscape:version="1.0.1 (c497b03c, 2020-09-10)"
   width="33.001572"
   height="33.001572">
  <metadata
     id="metadata1010">
    <rdf:RDF>
      <cc:Work
         rdf:about="">
        <dc:format>image/svg+xml</dc:format>
        <dc:type
           rdf:resource="http://purl.org/dc/dcmitype/StillImage" />
        <dc:title>Kubernetes</dc:title>
      </cc:Work>
    </rdf:RDF>
  </metadata>
  <defs
     id="defs1008" />
  <sodipodi:namedview
     pagecolor="#ffffff"
     bordercolor="#666666"
     borderopacity="1"
     objecttolerance="10"
     gridtolerance="10"
     guidetolerance="10"
     inkscape:pageopacity="0"
     inkscape:pageshadow="2"
     inkscape:window-width="1440"
     inkscape:window-height="847"
     id="namedview1006"
     showgrid="false"
     inkscape:zoom="10.469888"
     inkscape:cx="-22.794581"
     inkscape:cy="26.362865"
     inkscape:window-x="0"
     inkscape:window-y="25"
     inkscape:window-maximized="0"
     inkscape:current-layer="layer6"
     fit-margin-top="0"
     fit-margin-left="0"
     fit-margin-right="0"
     fit-margin-bottom="0"
     inkscape:document-rotation="0" />
  <title
     id="title1000">Kubernetes</title>
  <g
     inkscape:groupmode="layer"
     id="layer5"
     inkscape:label="Layer 1"
     transform="translate(4.6078016,4.0347291)">
    <rect
       style="fill:#000000;stroke:#000000;stroke-width:1.00157"
       id="rect1015"
       width="32"
       height="32"
       x="-4.1070166"
       y="-3.5339441"
       ry="5.51999" />
  </g>
  <g
     inkscape:groupmode="layer"
     id="layer6"
     inkscape:label="Layer 2"
     transform="translate(4.6078016,4.0347291)">
    <path
       d="m 10.096724,14.816042 0.007,0.01 -0.9989997,2.413 a 5.171,5.171 0 0 1 -2.075,-2.597 l 2.578,-0.437 0.004,0.005 a 0.44,0.44 0 0 1 0.4839997,0.606 z m -0.8329997,-2.129 a 0.44,0.44 0 0 0 0.173,-0.756 l 0.002,-0.011 -1.961,-1.754 a 5.143,5.143 0 0 0 -0.73,3.255 l 2.514,-0.725 z m 1.1449997,-1.98 a 0.44,0.44 0 0 0 0.699,-0.337 l 0.01,-0.005 0.15,-2.6199999 a 5.144,5.144 0 0 0 -3.0099997,1.442 l 2.1469997,1.5229999 0.004,-0.002 z m 0.76,2.75 0.723,0.349 0.722,-0.347 0.18,-0.78 -0.5,-0.623 h -0.804 l -0.5,0.623 0.179,0.779 z m 1.5,-3.095 a 0.44,0.44 0 0 0 0.7,0.336 l 0.008,0.003 2.134,-1.5129999 a 5.188,5.188 0 0 0 -2.992,-1.442 l 0.148,2.6149999 z m 10.876,5.97 -5.773,7.181 a 1.6,1.6 0 0 1 -1.248,0.594 l -9.2609997,0.003 a 1.6,1.6 0 0 1 -1.247,-0.596 l -5.77599999,-7.18 a 1.583,1.583 0 0 1 -0.307,-1.34 L 1.9927243,6.0390421 c 0.108,-0.47 0.425,-0.864 0.863,-1.073 L 11.197724,0.97904205 a 1.606,1.606 0 0 1 1.385,0 l 8.345,3.98500005 c 0.438,0.209 0.755,0.604 0.863,1.073 l 2.062,8.9549999 c 0.108,0.47 -0.005,0.963 -0.308,1.34 z m -3.289,-2.057 c -0.042,-0.01 -0.103,-0.026 -0.145,-0.034 -0.174,-0.033 -0.315,-0.025 -0.479,-0.038 -0.35,-0.037 -0.638,-0.067 -0.895,-0.148 -0.105,-0.04 -0.18,-0.165 -0.216,-0.216 l -0.201,-0.059 a 6.45,6.45 0 0 0 -0.105,-2.332 6.465,6.465 0 0 0 -0.936,-2.1629999 c 0.052,-0.047 0.15,-0.133 0.177,-0.159 0.008,-0.09 0.001,-0.183 0.094,-0.282 0.197,-0.185 0.444,-0.338 0.743,-0.522 0.142,-0.084 0.273,-0.137 0.415,-0.242 0.032,-0.024 0.076,-0.062 0.11,-0.089 0.24,-0.191 0.295,-0.52 0.123,-0.736 -0.172,-0.216 -0.506,-0.236 -0.745,-0.045 -0.034,0.027 -0.08,0.062 -0.111,0.088 -0.134,0.116 -0.217,0.23 -0.33,0.35 -0.246,0.25 -0.45,0.458 -0.673,0.609 -0.097,0.056 -0.239,0.037 -0.303,0.033 l -0.19,0.135 a 6.545,6.545 0 0 0 -4.146,-2.003 l -0.012,-0.223 c -0.065,-0.062 -0.143,-0.115 -0.163,-0.25 -0.022,-0.268 0.015,-0.557 0.057,-0.905 0.023,-0.163 0.061,-0.298 0.068,-0.475 0.001,-0.04 -10e-4,-0.099 -10e-4,-0.142 0,-0.306 -0.224,-0.555 -0.5,-0.555 -0.275,0 -0.499,0.249 -0.499,0.555 l 0.001,0.014 c 0,0.041 -0.002,0.092 0,0.128 0.006,0.177 0.044,0.312 0.067,0.475 0.042,0.348 0.078,0.637 0.056,0.906 a 0.545,0.545 0 0 1 -0.162,0.258 l -0.012,0.211 a 6.424,6.424 0 0 0 -4.1659997,2.003 8.373,8.373 0 0 1 -0.18,-0.128 c -0.09,0.012 -0.18,0.04 -0.297,-0.029 -0.223,-0.15 -0.427,-0.358 -0.673,-0.608 -0.113,-0.12 -0.195,-0.234 -0.329,-0.349 -0.03,-0.026 -0.077,-0.062 -0.111,-0.088 a 0.594,0.594 0 0 0 -0.348,-0.132 0.481,0.481 0 0 0 -0.398,0.176 c -0.172,0.216 -0.117,0.546 0.123,0.737 l 0.007,0.005 0.104,0.083 c 0.142,0.105 0.272,0.159 0.414,0.242 0.299,0.185 0.546,0.338 0.743,0.522 0.076,0.082 0.09,0.226 0.1,0.288 l 0.16,0.143 a 6.462,6.462 0 0 0 -1.02,4.5059999 l -0.208,0.06 c -0.055,0.072 -0.133,0.184 -0.215,0.217 -0.257,0.081 -0.546,0.11 -0.895,0.147 -0.164,0.014 -0.305,0.006 -0.48,0.039 -0.037,0.007 -0.09,0.02 -0.133,0.03 l -0.004,0.002 -0.007,0.002 c -0.295,0.071 -0.484,0.342 -0.423,0.608 0.061,0.267 0.349,0.429 0.645,0.365 l 0.007,-10e-4 0.01,-0.003 0.129,-0.029 c 0.17,-0.046 0.294,-0.113 0.448,-0.172 0.33,-0.118 0.604,-0.217 0.87,-0.256 0.112,-0.009 0.23,0.069 0.288,0.101 l 0.217,-0.037 a 6.5,6.5 0 0 0 2.88,3.596 l -0.09,0.218 c 0.033,0.084 0.069,0.199 0.044,0.282 -0.097,0.252 -0.263,0.517 -0.452,0.813 -0.091,0.136 -0.185,0.242 -0.268,0.399 -0.02,0.037 -0.045,0.095 -0.064,0.134 -0.128,0.275 -0.034,0.591 0.213,0.71 0.248,0.12 0.556,-0.007 0.69,-0.282 v -0.002 c 0.02,-0.039 0.046,-0.09 0.062,-0.127 0.07,-0.162 0.094,-0.301 0.144,-0.458 0.132,-0.332 0.205,-0.68 0.387,-0.897 0.05,-0.06 0.13,-0.082 0.215,-0.105 l 0.113,-0.205 a 6.453,6.453 0 0 0 4.6089997,0.012 l 0.106,0.192 c 0.086,0.028 0.18,0.042 0.256,0.155 0.136,0.232 0.229,0.507 0.342,0.84 0.05,0.156 0.074,0.295 0.145,0.457 0.016,0.037 0.043,0.09 0.062,0.129 0.133,0.276 0.442,0.402 0.69,0.282 0.247,-0.118 0.341,-0.435 0.213,-0.71 -0.02,-0.039 -0.045,-0.096 -0.065,-0.134 -0.083,-0.156 -0.177,-0.261 -0.268,-0.398 -0.19,-0.296 -0.346,-0.541 -0.443,-0.793 -0.04,-0.13 0.007,-0.21 0.038,-0.294 -0.018,-0.022 -0.059,-0.144 -0.083,-0.202 a 6.499,6.499 0 0 0 2.88,-3.622 c 0.064,0.01 0.176,0.03 0.213,0.038 0.075,-0.05 0.144,-0.114 0.28,-0.104 0.266,0.039 0.54,0.138 0.87,0.256 0.154,0.06 0.277,0.128 0.448,0.173 0.036,0.01 0.088,0.019 0.13,0.028 l 0.009,0.003 0.007,10e-4 c 0.297,0.064 0.584,-0.098 0.645,-0.365 0.06,-0.266 -0.128,-0.537 -0.423,-0.608 z m -3.963,-4.108 -1.95,1.746 v 0.005 a 0.44,0.44 0 0 0 0.173,0.757 l 0.003,0.01 2.526,0.728 a 5.199,5.199 0 0 0 -0.108,-1.674 5.208,5.208 0 0 0 -0.644,-1.573 z m -4.013,5.325 a 0.437,0.437 0 0 0 -0.404,-0.232 0.44,0.44 0 0 0 -0.372,0.233 h -0.002 l -1.268,2.292 a 5.164,5.164 0 0 0 3.326,0.003 l -1.27,-2.296 z m 1.888,-1.293 a 0.44,0.44 0 0 0 -0.27,0.036 0.44,0.44 0 0 0 -0.214,0.572 l -0.003,0.004 1.01,2.438 a 5.15,5.15 0 0 0 2.081,-2.615 l -2.6,-0.44 z"
       id="path1002"
       style="fill:#ffffff" />
  </g>
</svg>
