<?xml version="1.0" encoding="UTF-8" standalone="no"?>
<svg
   xmlns:dc="http://purl.org/dc/elements/1.1/"
   xmlns:cc="http://creativecommons.org/ns#"
   xmlns:rdf="http://www.w3.org/1999/02/22-rdf-syntax-ns#"
   xmlns:svg="http://www.w3.org/2000/svg"
   xmlns="http://www.w3.org/2000/svg"
   xmlns:sodipodi="http://sodipodi.sourceforge.net/DTD/sodipodi-0.dtd"
   xmlns:inkscape="http://www.inkscape.org/namespaces/inkscape"
   role="img"
   viewBox="0 0 33.001572 33.001572"
   version="1.1"
   id="svg946"
   sodipodi:docname="python.svg"
   inkscape:version="1.0.1 (c497b03c, 2020-09-10)"
   width="33.001572"
   height="33.001572">
  <metadata
     id="metadata952">
    <rdf:RDF>
      <cc:Work
         rdf:about="">
        <dc:format>image/svg+xml</dc:format>
        <dc:type
           rdf:resource="http://purl.org/dc/dcmitype/StillImage" />
        <dc:title>Python</dc:title>
      </cc:Work>
    </rdf:RDF>
  </metadata>
  <defs
     id="defs950" />
  <sodipodi:namedview
     pagecolor="#ffffff"
     bordercolor="#666666"
     borderopacity="1"
     objecttolerance="10"
     gridtolerance="10"
     guidetolerance="10"
     inkscape:pageopacity="0"
     inkscape:pageshadow="2"
     inkscape:window-width="1440"
     inkscape:window-height="847"
     id="namedview948"
     showgrid="false"
     inkscape:zoom="9.3244344"
     inkscape:cx="-12.654066"
     inkscape:cy="19.716102"
     inkscape:window-x="0"
     inkscape:window-y="25"
     inkscape:window-maximized="0"
     inkscape:current-layer="layer4"
     fit-margin-top="0"
     fit-margin-left="0"
     fit-margin-right="0"
     fit-margin-bottom="0"
     inkscape:document-rotation="0" />
  <title
     id="title942">Python</title>
  <g
     inkscape:groupmode="layer"
     id="layer3"
     inkscape:label="Layer 1"
     transform="translate(4.5760995,4.576099)">
    <rect
       style="fill:#000000;stroke:#000000;stroke-width:1.00157"
       id="rect959"
       width="32"
       height="32"
       x="-4.0753145"
       y="-4.075314"
       ry="5.51999" />
  </g>
  <g
     inkscape:groupmode="layer"
     id="layer4"
     inkscape:label="Layer 2"
     transform="translate(4.5760995,4.576099)">
    <path
       d="m 14.174685,0.10468596 0.9,0.2 0.73,0.26 0.59,0.3 0.45,0.32000004 0.34,0.34 0.25,0.34 0.16,0.33 0.1,0.3 0.04,0.26 0.02,0.2 -0.01,0.13 v 5.34 l -0.05,0.63 -0.13,0.55 -0.21,0.46 -0.26,0.38 -0.3,0.31 -0.33,0.25 -0.35,0.19 -0.35,0.14 -0.33,0.1 -0.3,0.07 -0.26,0.04 -0.21,0.02 H 8.6946855 l -0.69,0.05 -0.59,0.14 -0.5,0.22 -0.41,0.27 -0.33,0.32 -0.27,0.35 -0.2,0.36 -0.15,0.37 -0.1,0.35 -0.07,0.32 -0.04,0.27 -0.02,0.21 v 3.06 h -2.23 l -0.21,-0.03 -0.28,-0.07 -0.32,-0.12 -0.35,-0.18 -0.36,-0.26 -0.36,-0.36 -0.35000002,-0.46 -0.32,-0.59 -0.28,-0.73 -0.21,-0.88 -0.14,-1.05 -0.05,-1.23 0.06,-1.22 0.16,-1.04 0.24,-0.87 0.32,-0.71 0.36000002,-0.57 0.4,-0.44 0.42,-0.33 0.42,-0.24 0.4,-0.16 0.36,-0.1 0.32,-0.05 0.24,-0.01 h 0.16 l 0.06,0.01 h 8.1599995 v -0.83 H 6.1046855 l -0.01,-2.75 -0.02,-0.37 0.05,-0.34 0.11,-0.31 0.17,-0.28 0.25,-0.26 0.31,-0.23000004 0.38,-0.2 0.44,-0.18 0.51,-0.15 0.58,-0.12 0.64,-0.1 0.7099995,-0.06 0.77,-0.04 0.84,-0.02 1.27,0.05 z M 7.8746855,2.084686 l -0.23,0.33 -0.08,0.41 0.08,0.41 0.23,0.34 0.33,0.22 0.41,0.09 0.41,-0.09 0.33,-0.22 0.23,-0.34 0.08,-0.41 -0.08,-0.41 -0.23,-0.33 -0.33,-0.22 -0.41,-0.09 -0.41,0.09 z m 13.0899995,3.95 0.28,0.06 0.32,0.12 0.35,0.18 0.36,0.27 0.36,0.35 0.35,0.47 0.32,0.59 0.28,0.73 0.21,0.88 0.14,1.04 0.05,1.23 -0.06,1.23 -0.16,1.04 -0.24,0.86 -0.32,0.71 -0.36,0.57 -0.4,0.45 -0.42,0.33 -0.42,0.24 -0.4,0.16 -0.36,0.09 -0.32,0.05 -0.24,0.02 -0.16,-0.01 h -8.22 v 0.82 h 5.84 l 0.01,2.76 0.02,0.36 -0.05,0.34 -0.11,0.31 -0.17,0.29 -0.25,0.25 -0.31,0.24 -0.38,0.2 -0.44,0.17 -0.51,0.15 -0.58,0.13 -0.64,0.09 -0.71,0.07 -0.77,0.04 -0.84,0.01 -1.27,-0.04 -1.0699995,-0.14 -0.9,-0.2 -0.73,-0.25 -0.59,-0.3 -0.45,-0.33 -0.34,-0.34 -0.25,-0.34 -0.16,-0.33 -0.1,-0.3 -0.04,-0.25 -0.02,-0.2 0.01,-0.13 v -5.34 l 0.05,-0.64 0.13,-0.54 0.21,-0.46 0.26,-0.38 0.3,-0.32 0.33,-0.24 0.35,-0.2 0.35,-0.14 0.33,-0.1 0.3,-0.06 0.26,-0.04 0.21,-0.02 0.13,-0.01 h 5.8399995 l 0.69,-0.05 0.59,-0.14 0.5,-0.21 0.41,-0.28 0.33,-0.32 0.27,-0.35 0.2,-0.36 0.15,-0.36 0.1,-0.35 0.07,-0.32 0.04,-0.28 0.02,-0.21 v -3.06 h 2.09 l 0.14,0.01 z m -6.47,14.25 -0.23,0.33 -0.08,0.41 0.08,0.41 0.23,0.33 0.33,0.23 0.41,0.08 0.41,-0.08 0.33,-0.23 0.23,-0.33 0.08,-0.41 -0.08,-0.41 -0.23,-0.33 -0.33,-0.23 -0.41,-0.08 -0.41,0.08 z"
       id="path944"
       style="fill:#ffffff" />
  </g>
</svg>
