<?xml version="1.0" encoding="UTF-8" standalone="no"?>
<!--?xml version="1.0" encoding="utf-8"?-->

<!-- Generator: Adobe Illustrator 19.1.1, SVG Export Plug-In . SVG Version: 6.00 Build 0)  -->

<svg
   version="1.1"
   id="_x31_0"
   x="0px"
   y="0px"
   viewBox="0 0 563.20001 563.20001"
   style="opacity:1"
   xml:space="preserve"
   sodipodi:docname="solder_iron.svg"
   width="563.20001"
   height="563.20001"
   inkscape:version="1.2.2 (b0a84865, 2022-12-01)"
   xmlns:inkscape="http://www.inkscape.org/namespaces/inkscape"
   xmlns:sodipodi="http://sodipodi.sourceforge.net/DTD/sodipodi-0.dtd"
   xmlns="http://www.w3.org/2000/svg"
   xmlns:svg="http://www.w3.org/2000/svg"><defs
   id="defs4974" /><sodipodi:namedview
   id="namedview4972"
   pagecolor="#ffffff"
   bordercolor="#666666"
   borderopacity="1.0"
   inkscape:showpageshadow="2"
   inkscape:pageopacity="0.0"
   inkscape:pagecheckerboard="0"
   inkscape:deskcolor="#d1d1d1"
   showgrid="false"
   inkscape:zoom="2.0058594"
   inkscape:cx="249.51899"
   inkscape:cy="243.53651"
   inkscape:window-width="2341"
   inkscape:window-height="1383"
   inkscape:window-x="0"
   inkscape:window-y="25"
   inkscape:window-maximized="0"
   inkscape:current-layer="g4969" />
<style
   type="text/css"
   id="style4961">
	.st0{fill:#374149;}
</style>
<g
   id="g4969"
   transform="translate(25.599807,25.6)">
	<rect
   style="opacity:1;fill:#000000;stroke-width:1.53449;stroke-dashoffset:153.287"
   id="rect6219"
   width="563.20001"
   height="563.20001"
   x="0"
   y="0"
   ry="38.185562"
   transform="translate(-25.599807,-25.6)" /><path
   class="st0"
   d="M 511.886,19.995 491.891,0 455.849,22.861 c -7.571,-3.405 -14.439,-2.003 -22.537,5.857 -20.331,19.768 -109.268,107.534 -111.888,110.212 -11.35,11.573 -18.179,18.515 -28.19,20.218 -1.523,0.254 -2.913,0.414 -4.264,0.542 -0.445,0.043 -0.894,0.09 -1.327,0.121 -10.492,0.762 -15.658,-2.054 -18.027,-3.37 -4.35,-2.397 -9.843,-1.589 -13.358,1.922 l -9.437,9.441 c -1.301,1.3 -1.301,3.413 0,4.717 l 9.187,9.183 -24.677,24.677 -8.758,-8.754 c -3.112,-3.111 -8.153,-3.111 -11.265,0 l -7.809,7.81 c -3.112,3.112 -3.112,8.207 0,11.319 l 19.074,19.074 -156.675,156.679 -0.34,0.336 v 0 l -0.114,0.113 7.946,7.946 -54.874,54.878 -1.086,1.925 -14.707,26.335 c -3.85,6.899 -3.553,15.738 1.655,21.678 5.775,6.583 15.002,8.157 22.502,3.932 l 27.301,-15.197 1.925,-1.086 54.874,-54.878 7.817,7.817 0.02,0.019 v 0 l 0.113,0.114 157.13,-157.129 19.074,19.073 c 3.123,3.124 8.191,3.124 11.319,0 l 7.782,-7.782 c 3.123,-3.127 3.123,-8.195 0,-11.322 l -8.73,-8.727 24.68,-24.676 9.156,9.156 c 1.316,1.319 3.456,1.319 4.772,0 l 9.41,-9.41 c 3.514,-3.51 4.322,-9.003 1.898,-13.326 -1.507,-2.788 -5.103,-9.285 -2.678,-23.646 1.675,-10.038 8.644,-16.844 20.19,-28.163 2.674,-2.624 90.303,-91.475 110.212,-111.942 7.879,-8.078 9.285,-14.939 5.884,-22.514 z m -209.84,227.043 c 2.343,2.342 2.37,6.162 0,8.531 -2.342,2.342 -6.192,2.342 -8.535,0 -1.171,-1.171 -1.757,-2.702 -1.784,-4.236 0,-1.562 0.586,-3.151 1.757,-4.322 2.37,-2.37 6.192,-2.343 8.562,0.027 z m -47.459,41.231 c 1.179,-2.783 0.676,-6.032 -1.589,-8.301 -2.96,-2.955 -7.754,-2.955 -10.738,0.027 -2.956,2.956 -2.983,7.782 -0.027,10.738 2.132,2.132 5.142,2.636 7.794,1.742 0.218,-0.043 0.422,-0.047 0.648,-0.086 l -19.382,19.378 -18.14,17.93 c 1.152,-2.757 0.671,-6.029 -1.593,-8.29 -2.956,-2.959 -7.778,-2.928 -10.734,0.028 -2.983,2.982 -2.983,7.778 -0.031,10.733 2.135,2.132 5.126,2.663 7.797,1.742 0.219,-0.039 0.418,-0.042 0.645,-0.086 l -19.359,19.358 -18.163,17.953 c 1.152,-2.757 0.644,-6.001 -1.617,-8.266 -2.959,-2.956 -7.754,-2.956 -10.71,0 -2.983,2.983 -2.983,7.782 -0.028,10.738 2.132,2.131 5.127,2.658 7.794,1.741 0.218,-0.038 0.422,-0.046 0.648,-0.09 l -48.873,48.877 -7.95,-7.95 -64.467,64.467 -27.3,15.255 c -1.058,0.558 -2.116,0.277 -2.815,-0.418 -0.699,-0.699 -1.003,-1.785 -0.418,-2.819 l 15.25,-27.297 64.472,-64.471 -7.95,-7.946 49.021,-49.021 c -1.335,2.846 -0.836,6.247 1.48,8.558 2.983,2.987 7.778,2.987 10.765,0 2.955,-2.952 2.955,-7.75 -0.031,-10.734 -2.105,-2.105 -5.092,-2.631 -7.735,-1.738 -0.218,0.039 -0.422,0.047 -0.648,0.086 l 19.335,-19.339 18.183,-17.973 c -1.171,2.784 -0.668,6.029 1.566,8.262 2.983,2.983 7.782,2.983 10.765,0 2.956,-2.956 2.983,-7.778 0,-10.765 -2.105,-2.105 -5.115,-2.608 -7.766,-1.71 -0.218,0.039 -0.422,0.047 -0.648,0.086 l 19.445,-19.444 18.078,-17.867 c -1.152,2.761 -0.671,6.029 1.566,8.266 2.983,2.983 7.806,2.956 10.765,0 2.983,-2.982 2.983,-7.782 -0.004,-10.765 -2.104,-2.108 -5.095,-2.631 -7.766,-1.714 -0.219,0.039 -0.418,0.046 -0.645,0.086 l 10.254,-10.249 31.174,31.174 -5.392,5.396 z m 5.993,-68.137 c -1.53,0.024 -3.092,-0.59 -4.264,-1.761 -2.342,-2.342 -2.342,-6.189 -0.003,-8.531 2.37,-2.37 6.192,-2.342 8.535,0 2.37,2.37 2.37,6.162 0,8.535 -1.172,1.167 -2.706,1.754 -4.268,1.757 z"
   style="fill:#ffffff;fill-opacity:1"
   id="path4963" />
	<path
   class="st0"
   d="m 169.539,331.582 c -2.983,2.983 -2.983,7.782 0,10.765 2.956,2.956 7.778,2.983 10.765,0 2.952,-2.955 2.952,-7.809 -0.004,-10.765 -2.984,-2.982 -7.805,-2.955 -10.761,0 z"
   style="fill:#ffffff;fill-opacity:1"
   id="path4965" />
	<path
   class="st0"
   d="m 210.974,290.148 c -2.956,2.956 -2.983,7.778 0,10.761 2.955,2.96 7.809,2.96 10.764,0 2.983,-2.983 2.956,-7.805 0,-10.761 -2.983,-2.983 -7.782,-2.983 -10.764,0 z"
   style="fill:#ffffff;fill-opacity:1"
   id="path4967" />
</g>
</svg>
