<?xml version="1.0" encoding="UTF-8" standalone="no"?>
<svg
   xmlns:dc="http://purl.org/dc/elements/1.1/"
   xmlns:cc="http://creativecommons.org/ns#"
   xmlns:rdf="http://www.w3.org/1999/02/22-rdf-syntax-ns#"
   xmlns:svg="http://www.w3.org/2000/svg"
   xmlns="http://www.w3.org/2000/svg"
   xmlns:sodipodi="http://sodipodi.sourceforge.net/DTD/sodipodi-0.dtd"
   xmlns:inkscape="http://www.inkscape.org/namespaces/inkscape"
   role="img"
   viewBox="0 0 33.001572 33.001572"
   version="1.1"
   id="svg1771"
   sodipodi:docname="twitter.svg"
   width="33.001572"
   height="33.001572"
   inkscape:version="1.0.1 (c497b03c, 2020-09-10)">
  <metadata
     id="metadata1777">
    <rdf:RDF>
      <cc:Work
         rdf:about="">
        <dc:format>image/svg+xml</dc:format>
        <dc:type
           rdf:resource="http://purl.org/dc/dcmitype/StillImage" />
        <dc:title>Twitter</dc:title>
      </cc:Work>
    </rdf:RDF>
  </metadata>
  <defs
     id="defs1775" />
  <sodipodi:namedview
     pagecolor="#ffffff"
     bordercolor="#666666"
     borderopacity="1"
     objecttolerance="10"
     gridtolerance="10"
     guidetolerance="10"
     inkscape:pageopacity="0"
     inkscape:pageshadow="2"
     inkscape:window-width="1440"
     inkscape:window-height="847"
     id="namedview1773"
     showgrid="false"
     fit-margin-top="0"
     fit-margin-left="0"
     fit-margin-right="0"
     fit-margin-bottom="0"
     inkscape:zoom="13.631612"
     inkscape:cx="-5.5062538"
     inkscape:cy="24.653432"
     inkscape:window-x="0"
     inkscape:window-y="25"
     inkscape:window-maximized="1"
     inkscape:current-layer="layer12" />
  <title
     id="title1767">Twitter</title>
  <g
     inkscape:groupmode="layer"
     id="layer11"
     inkscape:label="Layer 1"
     transform="translate(2.4814752,5.4891902)">
    <rect
       style="fill:#000000;stroke:#000000;stroke-width:1.00157"
       id="rect1782"
       width="32"
       height="32"
       x="-1.9806902"
       y="-4.9884052"
       ry="6.8407798" />
  </g>
  <g
     inkscape:groupmode="layer"
     id="layer12"
     inkscape:label="Layer 2"
     transform="translate(2.4814752,5.4891902)">
    <path
       d="m 25.97231,3.581842 a 10,10 0 0 1 -2.825,0.775 4.958,4.958 0 0 0 2.163,-2.723 c -0.951,0.555 -2.005,0.959 -3.127,1.184 a 4.92,4.92 0 0 0 -8.384,4.482 c -4.0900002,-0.193 -7.7130002,-2.158 -10.1400002,-5.126 a 4.822,4.822 0 0 0 -0.666,2.475 c 0,1.71 0.87,3.213 2.188,4.096 a 4.904,4.904 0 0 1 -2.228,-0.616 v 0.06 a 4.923,4.923 0 0 0 3.946,4.827 4.996,4.996 0 0 1 -2.212,0.085 4.936,4.936 0 0 0 4.604,3.417 9.867,9.867 0 0 1 -6.102,2.105 c -0.39,0 -0.779,-0.023 -1.17,-0.067 a 13.995,13.995 0 0 0 7.557,2.209 c 9.0530002,0 13.9980002,-7.496 13.9980002,-13.985 0,-0.21 0,-0.42 -0.015,-0.63 a 9.935,9.935 0 0 0 2.46,-2.548 z"
       id="path1769"
       style="fill:#ffffff" />
  </g>
</svg>
