<?xml version="1.0" encoding="UTF-8" standalone="no"?>
<svg
   xmlns:dc="http://purl.org/dc/elements/1.1/"
   xmlns:cc="http://creativecommons.org/ns#"
   xmlns:rdf="http://www.w3.org/1999/02/22-rdf-syntax-ns#"
   xmlns:svg="http://www.w3.org/2000/svg"
   xmlns="http://www.w3.org/2000/svg"
   xmlns:sodipodi="http://sodipodi.sourceforge.net/DTD/sodipodi-0.dtd"
   xmlns:inkscape="http://www.inkscape.org/namespaces/inkscape"
   role="img"
   viewBox="0 0 32.000004 32"
   version="1.1"
   id="svg14"
   sodipodi:docname="visualstudiocode.svg"
   inkscape:version="1.0.1 (c497b03c, 2020-09-10)"
   width="32.000004"
   height="32">
  <metadata
     id="metadata20">
    <rdf:RDF>
      <cc:Work
         rdf:about="">
        <dc:format>image/svg+xml</dc:format>
        <dc:type
           rdf:resource="http://purl.org/dc/dcmitype/StillImage" />
        <dc:title>Visual Studio Code</dc:title>
      </cc:Work>
    </rdf:RDF>
  </metadata>
  <defs
     id="defs18" />
  <sodipodi:namedview
     pagecolor="#ffffff"
     bordercolor="#666666"
     borderopacity="1"
     objecttolerance="10"
     gridtolerance="10"
     guidetolerance="10"
     inkscape:pageopacity="0"
     inkscape:pageshadow="2"
     inkscape:window-width="1440"
     inkscape:window-height="847"
     id="namedview16"
     showgrid="false"
     inkscape:zoom="4.891313"
     inkscape:cx="10.291042"
     inkscape:cy="-6.716969"
     inkscape:window-x="0"
     inkscape:window-y="25"
     inkscape:window-maximized="1"
     inkscape:current-layer="layer1"
     fit-margin-top="0"
     fit-margin-left="0"
     fit-margin-right="0"
     fit-margin-bottom="0" />
  <title
     id="title10">Visual Studio Code</title>
  <g
     inkscape:groupmode="layer"
     id="layer2"
     inkscape:label="Layer 2"
     transform="translate(2.7496713,3.5674478)">
    <rect
       style="fill:#000000;stroke:#000000;stroke-width:1.18698"
       id="rect868"
       width="30.813023"
       height="30.813021"
       x="-2.1561813"
       y="-2.9739578"
       ry="6.5418296" />
  </g>
  <g
     inkscape:groupmode="layer"
     id="layer1"
     inkscape:label="Layer 1"
     style="display:inline"
     transform="translate(2.7496713,3.5674478)">
    <path
       d="m 24.400502,3.0200061 -4.94,-2.37700003 a 1.494,1.494 0 0 0 -1.705,0.29 l -9.4600003,8.63000003 -4.12,-3.128 a 0.999,0.999 0 0 0 -1.276,0.057 l -1.322,1.202 a 1,1 0 0 0 -0.001,1.479 l 3.573,3.2599999 -3.573,3.26 a 1,1 0 0 0 0.001,1.479 l 1.323,1.201 a 0.999,0.999 0 0 0 1.276,0.057 l 4.12,-3.128 9.4600003,8.63 a 1.492,1.492 0 0 0 1.704,0.29 l 4.942,-2.377 a 1.5,1.5 0 0 0 0.848,-1.352 V 4.3720061 a 1.5,1.5 0 0 0 -0.85,-1.352 z m -5.146,14.8609999 -7.178,-5.448 7.178,-5.4479999 z"
       id="path12"
       style="fill:#ffffff" />
  </g>
</svg>
