<?xml version="1.0" encoding="UTF-8" standalone="no"?>
<svg
   xmlns:dc="http://purl.org/dc/elements/1.1/"
   xmlns:cc="http://creativecommons.org/ns#"
   xmlns:rdf="http://www.w3.org/1999/02/22-rdf-syntax-ns#"
   xmlns:svg="http://www.w3.org/2000/svg"
   xmlns="http://www.w3.org/2000/svg"
   xmlns:sodipodi="http://sodipodi.sourceforge.net/DTD/sodipodi-0.dtd"
   xmlns:inkscape="http://www.inkscape.org/namespaces/inkscape"
   role="img"
   viewBox="0 0 33.001572 33.001572"
   version="1.1"
   id="svg1280"
   sodipodi:docname="go.svg"
   inkscape:version="1.0.1 (c497b03c, 2020-09-10)"
   width="33.001572"
   height="33.001572">
  <metadata
     id="metadata1286">
    <rdf:RDF>
      <cc:Work
         rdf:about="">
        <dc:format>image/svg+xml</dc:format>
        <dc:type
           rdf:resource="http://purl.org/dc/dcmitype/StillImage" />
        <dc:title>Go</dc:title>
      </cc:Work>
    </rdf:RDF>
  </metadata>
  <defs
     id="defs1284" />
  <sodipodi:namedview
     pagecolor="#ffffff"
     bordercolor="#666666"
     borderopacity="1"
     objecttolerance="10"
     gridtolerance="10"
     guidetolerance="10"
     inkscape:pageopacity="0"
     inkscape:pageshadow="2"
     inkscape:window-width="1440"
     inkscape:window-height="847"
     id="namedview1282"
     showgrid="false"
     inkscape:zoom="5.2039756"
     inkscape:cx="-51.793172"
     inkscape:cy="36.700245"
     inkscape:window-x="0"
     inkscape:window-y="25"
     inkscape:window-maximized="0"
     inkscape:current-layer="layer8"
     inkscape:document-rotation="0"
     fit-margin-top="0"
     fit-margin-left="0"
     fit-margin-right="0"
     fit-margin-bottom="0" />
  <title
     id="title1276">Go</title>
  <g
     inkscape:groupmode="layer"
     id="layer7"
     inkscape:label="Layer 1"
     transform="translate(3.3367566,4.5081364)">
    <rect
       style="fill:#000000;stroke:#000000;stroke-width:1.00157"
       id="rect1291"
       width="32"
       height="32"
       x="-2.8359716"
       y="-4.0073514"
       ry="5.51999" />
  </g>
  <g
     inkscape:groupmode="layer"
     id="layer8"
     inkscape:label="Layer 2"
     transform="translate(3.3367566,4.5081364)">
    <path
       d="m 1.2936027,9.9319686 c -0.054756,0 -0.067571,-0.02679 -0.040776,-0.06874 l 0.2865949,-0.366981 c 0.026795,-0.04078 0.094367,-0.06757 0.1491225,-0.06757 h 4.8604635 c 0.053591,0 0.067571,0.04078 0.040776,0.08155 l -0.231839,0.353001 c -0.026795,0.04194 -0.095532,0.08155 -0.1363074,0.08155 z m -2.05509536,1.2523964 c -0.0547559,0 -0.0687362,-0.0268 -0.0407757,-0.06757 l 0.2854299,-0.368147 c 0.0267955,-0.04078 0.0955316,-0.06757 0.15028758,-0.06757 H 5.8406757 c 0.054756,0 0.081551,0.04078 0.067571,0.08155 l -0.1083469,0.326205 c -0.01398,0.05476 -0.067571,0.08155 -0.1223271,0.08155 z m 3.29467656,1.252396 c -0.054756,0 -0.068736,-0.04078 -0.040776,-0.08155 l 0.1898983,-0.340186 c 0.026795,-0.04078 0.081551,-0.08155 0.1363073,-0.08155 h 2.7226518 c 0.054756,0 0.081551,0.04078 0.081551,0.09553 l -0.026796,0.326206 c 0,0.05476 -0.054756,0.09553 -0.095532,0.09553 z M 16.663711,9.6873146 c -0.857455,0.217859 -1.44346,0.3809624 -2.286934,0.5988204 -0.205044,0.05359 -0.217859,0.06757 -0.396107,-0.136307 -0.202713,-0.2318394 -0.353001,-0.3809614 -0.638431,-0.5172694 -0.85862,-0.421737 -1.689279,-0.29941 -2.464017,0.203879 -0.9261907,0.5988194 -1.4026837,1.4842344 -1.3887037,2.5863434 0.01281,1.089294 0.7619227,1.987524 1.8372367,2.137812 0.92619,0.122327 1.700929,-0.203879 2.314894,-0.897066 0.122327,-0.151452 0.230674,-0.314555 0.366982,-0.505618 H 11.38151 c -0.285429,0 -0.354166,-0.177083 -0.258634,-0.407757 0.177083,-0.421738 0.503289,-1.13007 0.694352,-1.484236 a 0.3669813,0.3669813 0 0 1 0.340186,-0.217858 h 4.95483 c -0.0268,0.368146 -0.0268,0.735127 -0.08155,1.103273 a 5.8052946,5.8052946 0 0 1 -1.116089,2.667896 c -0.979782,1.293172 -2.260139,2.097036 -3.879516,2.31373 C 10.701139,17.31004 9.4615583,17.051407 8.3734292,16.235892 7.3656869,15.472803 6.7936621,14.465061 6.6445395,13.212665 6.4674565,11.728429 6.9031739,10.394482 7.8014043,9.2236368 8.7683709,7.9584251 10.047563,7.1545613 11.613349,6.8702964 c 1.279192,-0.233004 2.504793,-0.081551 3.606902,0.6652264 0.722313,0.4776582 1.238417,1.1300694 1.579767,1.9199528 0.08155,0.122327 0.0268,0.191063 -0.136307,0.233004 m 4.506297,7.5271934 c -1.239581,-0.02796 -2.36965,-0.382126 -3.322637,-1.198805 a 4.2697983,4.2697983 0 0 1 -1.470255,-2.62712 c -0.244654,-1.537827 0.177083,-2.899735 1.103274,-4.1113554 0.993762,-1.3071523 2.191403,-1.987524 3.811946,-2.2717888 1.388703,-0.2446542 2.695856,-0.1106769 3.879516,0.6931869 1.075314,0.7339626 1.74287,1.7288899 1.919953,3.0348763 0.230674,1.838402 -0.29941,3.335452 -1.565787,4.615809 -0.89823,0.912211 -2.001504,1.483071 -3.267881,1.741705 -0.366981,0.0699 -0.733962,0.08155 -1.088129,0.123492 z m 3.238756,-5.498894 c -0.01281,-0.178248 -0.01281,-0.314555 -0.03961,-0.450863 C 24.1245,9.9179886 22.884919,9.1572307 21.591747,9.4554756 c -1.266377,0.28543 -2.083056,1.0892934 -2.382466,2.3684854 -0.244654,1.062498 0.272614,2.137812 1.252396,2.574694 0.749108,0.326206 1.497051,0.284265 2.219363,-0.08155 1.075314,-0.55921 1.660154,-1.430645 1.72889,-2.60149 z"
       id="path1278"
       style="fill:#ffffff;stroke-width:1.16502" />
  </g>
</svg>
